{"title":"The Thing(2011)MP-4[DaScubaDude]","uid":12358611,"size":1033276997,"categoryP":"video","categoryS":"movies","magnet":"?xt=urn:btih:5a98ea41a0d256c455978efceb7e27e53d8ffa8e&amp;dn=The+Thing%282011%29MP-4%5BDaScubaDude%5D&amp;tr=udp%3A%2F%2Ftracker.openbittorrent.com%3A80&amp;tr=udp%3A%2F%2Fopen.demonii.com%3A1337&amp;tr=udp%3A%2F%2Ftracker.coppersurfer.tk%3A6969&amp;tr=udp%3A%2F%2Fexodus.desync.com%3A6969","seeders":2,"leechers":1,"uploader":"dascuba","files":1,"time":1441505018,"description":"The Thing (I) (2011)\nR  |  103 min  |  Horror, Mystery, Sci-Fi  |  14 October 2011 (USA)\n6.2 Your rating:   -/10   Ratings: 6.2/10 from 87,953 users   Metascore: 49/100 \nReviews: 477 user | 338 critic | 31 from Metacritic.com\nAt an Antarctica research site, the discovery of an alien craft leads to a confrontation between graduate student Kate Lloyd and scientist Dr. Sander Halvorson.\n\nDirector: Matthijs van Heijningen Jr. (as Matthijs van Heijningen)\nWriters: Eric Heisserer, John W. Campbell Jr. (short story &quot;Who Goes There?&quot;)\nStars: Mary Elizabeth Winstead, Joel Edgerton, Ulrich Thomsen \n\nGeneral\nComplete name                           : C:The Thing (2011)THE_THING_Title2.mp4\nFormat                                   : MPEG-4\nFormat profile                           : Base Media\nCodec ID                                 : isom\nFile size                                : 985 MiB\nDuration                                 : 1h 42mn\nOverall bit rate                         : 1 338 Kbps\nMovie name                               : THE_THING\nWriting application                      : Lavf54.6.100\n\nVideo\nID                                       : 1\nFormat                                   : AVC\nFormat/Info                              : Advanced Video Codec\nFormat profile                           : Baseline@L3\nFormat settings, CABAC                   : No\nFormat settings, ReFrames                : 6 frames\nCodec ID                                 : avc1\nCodec ID/Info                            : Advanced Video Coding\nDuration                                 : 1h 42mn\nBit rate                                 : 1 203 Kbps\nWidth                                    : 720 pixels\nHeight                                   : 404 pixels\nDisplay aspect ratio                     : 16:9\nFrame rate mode                          : Constant\nFrame rate                               : 29.970 fps\nColor space                              : YUV\nChroma subsampling                       : 4:2:0\nBit depth                                : 8 bits\nScan type                                : Progressive\nBits/(Pixel*Frame)                       : 0.138\nStream size                              : 886 MiB (90%)\n\nAudio\nID                                       : 2\nFormat                                   : AAC\nFormat/Info                              : Advanced Audio Codec\nFormat profile                           : LC\nCodec ID                                 : 40\nDuration                                 : 1h 42mn\nBit rate mode                            : Constant\nBit rate                                 : 128 Kbps\nChannel(s)                               : 2 channels\nChannel positions                        : Front: L R\nSampling rate                            : 44.1 KHz\nCompression mode                         : Lossy\nStream size                              : 94.2 MiB (10%)","torrent":{"xt":"urn:btih:5a98ea41a0d256c455978efceb7e27e53d8ffa8e","amp;dn":"The+Thing%282011%29MP-4%5BDaScubaDude%5D","amp;tr":["udp%3A%2F%2Ftracker.openbittorrent.com%3A80","udp%3A%2F%2Fopen.demonii.com%3A1337","udp%3A%2F%2Ftracker.coppersurfer.tk%3A6969","udp%3A%2F%2Fexodus.desync.com%3A6969"],"infoHash":"5a98ea41a0d256c455978efceb7e27e53d8ffa8e","infoHashBuffer":{"type":"Buffer","data":[90,152,234,65,160,210,86,196,85,151,142,252,235,126,39,229,61,143,250,142]},"announce":[],"urlList":[]}}